<?xml version="1.0" encoding="UTF-8" standalone="no"?>
<!DOCTYPE svg PUBLIC "-//W3C//DTD SVG 1.1//EN" "http://www.w3.org/Graphics/SVG/1.1/DTD/svg11.dtd">
<!-- Created with Vectornator (http://vectornator.io/) -->
<svg height="100%" stroke-miterlimit="10" style="fill-rule:nonzero;clip-rule:evenodd;stroke-linecap:round;stroke-linejoin:round;" version="1.1" viewBox="0 0 416.449 98.8761" width="100%" xml:space="preserve" xmlns="http://www.w3.org/2000/svg" xmlns:vectornator="http://vectornator.io" xmlns:xlink="http://www.w3.org/1999/xlink">
<defs/>
<g id="Layer-2" vectornator:layerName="Layer 2">
<g opacity="1">
<path d="M209.653 29.996C209.653 29.996 210.595 37.4024 212.665 38.8379C213.539 39.4443 214.8 38.6295 214.855 39.2049C214.991 40.6355 215.587 42.8288 215.587 42.8288C215.587 42.8288 208.506 45.5023 208.034 51.3927C207.561 57.2831 205.605 37.2278 209.653 29.996Z" fill="#e94420" fill-rule="nonzero" opacity="1" stroke="#000000" stroke-linecap="butt" stroke-linejoin="round" stroke-width="0.421336"/>
<path d="M196.399 27.5452C196.399 27.5452 195.004 40.9597 194.984 48.6014C194.982 49.395 194.475 49.1595 193.83 49.2149C192.899 49.2948 192.472 48.5662 192.472 48.5662C192.472 48.5662 191.284 47.6612 190.858 46.3316C190.432 45.0019 190.933 43.394 190.8 43.092C190.14 41.5921 188.568 40.1996 188.568 40.1996L186.439 36.6924C186.439 36.6924 186.137 36.4311 186.155 36.2474C186.172 36.0637 186.657 36.6705 186.874 36.4786C187.406 36.009 188.428 35.217 189.085 33.6768L190.525 35.4416C190.525 35.4416 191.164 36.6954 191.605 35.9729C193.084 33.5518 193.633 29.4024 196.399 27.5452Z" fill="#e94420" fill-rule="nonzero" opacity="1" stroke="#000000" stroke-linecap="butt" stroke-linejoin="round" stroke-width="0.421336"/>
<path d="M209.266 52.2327C209.362 56.3987 209.685 56.7188 210.374 61.0115C211.062 65.3043 212.02 69.4037 212.02 69.4037C212.02 69.4037 210.53 64.2145 209.259 59.7333C208.434 56.8249 207.623 53.0562 207.642 52.688C207.807 49.3993 209.428 47.6419 209.428 47.6419C209.428 47.6419 209.217 50.0724 209.266 52.2327Z" fill="#e94420" fill-rule="nonzero" opacity="1" stroke="#000000" stroke-linecap="butt" stroke-linejoin="round" stroke-width="0.421336"/>
<path d="M192.523 75.8363C192.523 75.8363 195.883 50.5806 195.11 49.5036C194.514 48.6738 193.679 49.4423 192.819 48.9786C191.68 48.3641 192.651 50.4067 192.39 60.4344C192.213 67.1983 192.523 75.8363 192.523 75.8363Z" fill="#e94420" fill-rule="nonzero" opacity="1" stroke="#000000" stroke-linecap="butt" stroke-linejoin="round" stroke-width="0.421336"/>
<path d="M214.832 39.2816C214.943 38.866 216.404 37.2013 218.052 36.4719C219.699 35.7426 220.039 35.9842 221.475 36.6567C222.911 37.3292 223.712 38.558 223.796 39.1619C223.881 39.7658 223.628 39.6768 223.527 40.2809C223.426 40.8849 223.394 41.5779 223.394 41.5779L223.168 42.5621C223.168 42.5621 222.886 43.5836 222.27 43.9755C221.653 44.3673 220.702 44.1294 220.702 44.1294C220.702 44.1294 220.212 43.8936 220.059 43.4141C219.906 42.9347 220.09 42.2115 220.09 42.2115L219.66 41.7734L217.838 42.4643C217.838 42.4643 215.939 42.8286 215.505 42.3885C214.936 41.8116 214.651 39.9573 214.832 39.2816Z" fill="#ef9f46" fill-rule="nonzero" opacity="1" stroke="#000000" stroke-linecap="butt" stroke-linejoin="round" stroke-width="0.421336"/>
<path d="M189.063 33.5261L189.241 31.1223C189.241 31.1223 189.458 29.8787 189.19 29.4554C188.922 29.0322 188.492 29.0268 188.168 29.4293C187.844 29.8317 188.174 30.7686 187.894 31.0653C187.613 31.362 187.401 30.5463 187.045 30.6159C186.689 30.6856 186.981 31.2839 186.469 31.3439C185.956 31.4039 185.368 31.1975 184.993 30.8559C184.618 30.5143 184.709 30.3704 184.969 29.9775C185.229 29.5847 185.68 29.675 186.033 29.2845C186.386 28.894 186.381 28.4156 186.381 28.4156C186.381 28.4156 186.007 28.0234 185.63 27.7662C185.253 27.5089 185.238 27.4354 184.873 27.3866C184.508 27.3379 184.171 27.5712 184.171 27.5712C184.171 27.5712 183.962 27.0932 183.585 26.8359C183.208 26.5787 182.663 26.5422 182.663 26.5422C182.663 26.5422 182.42 25.5963 182.111 25.4027C181.802 25.2091 181.427 25.7678 181.427 25.7678C181.427 25.7678 180.526 26.9151 180.286 27.6742C180.046 28.4333 180.26 28.4613 180.466 28.8043C180.672 29.1472 181.111 29.0459 181.111 29.0459C181.111 29.0459 180.327 29.701 180.82 30.4339C181.312 31.1668 181.989 31.0659 183.082 31.9774C184.174 32.8888 184.253 32.9977 185.19 34.0796C186.127 35.1615 186.503 36.3641 186.83 36.3049C187.792 36.1309 189.063 33.5261 189.063 33.5261Z" fill="#ef9f46" fill-rule="nonzero" opacity="1" stroke="#000000" stroke-linecap="butt" stroke-linejoin="round" stroke-width="0.421336"/>
<path d="M202.814 25.0868C202.697 24.5005 201.909 24.5579 201.6 23.8814C200.705 21.9189 200.737 21.2948 200.079 18.4653C199.977 18.0249 198.969 17.8655 199.021 17.4184C199.13 16.4816 200.233 15.7895 201.478 14.9473C202.665 14.1443 203.499 14.2598 203.795 14.3602C204.695 14.6657 204.552 15.3095 205.227 15.6306C205.964 15.9817 207.588 15.8735 207.813 16.0314C208.663 16.6281 208.23 16.8295 208.749 17.7159C209.269 18.6022 209.41 18.8166 209.884 19.4582C210.203 19.8905 209.935 19.6739 209.79 20.9913C209.644 22.3086 209.382 23.2594 209.302 24.7277C209.223 26.1959 209.805 26.443 209.642 26.7796C208.988 28.1248 206.778 29.5183 206.108 29.8066C204.053 30.6906 204.091 30.682 202.938 30.2198C201.785 29.7576 201.527 29.2411 201.496 27.9579C201.465 26.6746 202.931 25.6731 202.814 25.0868Z" fill="#ef9f46" fill-rule="nonzero" opacity="1" stroke="#000000" stroke-linecap="butt" stroke-linejoin="round" stroke-width="0.421336"/>
<path d="M215.951 29.4757C215.457 28.8602 215.255 29.2145 214.118 28.5301C213.159 27.9528 214.813 27.6574 215.508 27.33C215.637 27.2693 215.733 27.2075 215.773 27.1426C215.938 26.8748 215.493 26.2829 215.493 26.2829L215.887 25.7738L215.196 24.754C215.196 24.754 213.881 25.4056 213.755 25.0639C213.518 24.424 215.514 23.9661 215.511 23.3359C215.503 21.4691 214.154 20.6962 214.036 20.3302C213.863 19.7963 215.157 20.2074 215.281 19.2909C215.404 18.3745 215.108 17.3957 214.528 16.6643C213.949 15.9328 213.958 16.7225 212.964 16.365C211.969 16.0076 211.49 15.2766 211.49 15.2766C211.49 15.2766 210.229 14.7063 207.886 14.3057C205.038 13.8189 203.677 14.0575 201.292 14.5795C199.291 15.0175 200.046 14.7426 199.384 15.0582C198.721 15.3738 199.041 15.5312 198.584 15.7473C198.127 15.9634 198.035 15.3268 197.704 15.578C197.373 15.8293 197.032 16.0786 197.276 17.0462C197.519 18.0137 198.145 18.3715 198.508 19.6473C198.87 20.9232 198.4 21.3598 198.726 22.1496C198.886 22.5364 199.343 22.3067 199.375 22.549C199.406 22.7912 198.852 23.1187 198.852 23.1187C198.852 23.1187 198.626 23.6688 198.902 24.1041C199.178 24.5395 199.955 24.8601 199.955 24.8601L202.131 24.7158C202.131 24.7158 201.456 24.0001 200.984 22.2439C200.589 20.7724 200.404 20.1756 200.212 18.8837C200.067 17.9141 198.976 18.0015 198.97 17.491C198.96 16.5925 201.264 15.0813 201.264 15.0813C201.264 15.0813 202.1 14.4315 202.884 14.2606C203.717 14.079 204.177 14.3555 204.556 14.9148C204.986 15.5483 205.57 15.819 205.57 15.819C205.57 15.819 207.566 15.9249 207.71 16.056C208.001 16.3211 208.06 16.493 208.427 17.1205C208.451 17.1604 208.646 17.5161 208.667 17.5585C209.057 18.3414 209.224 18.5249 209.382 18.7585C209.733 19.2785 209.937 19.2628 210.007 19.6955C210.076 20.1282 209.563 22.2774 209.563 22.2774C209.563 22.2774 209.433 23.3621 209.339 24.4746C209.254 25.4808 209.693 26.7411 209.693 26.7411C209.693 26.7411 210.129 25.95 210.32 26.5654C210.511 27.1808 209.999 28.8351 209.999 28.8351C209.999 28.8351 210.148 29.5953 210.644 30.0909C211.139 30.5866 211.981 30.8177 211.981 30.8177C211.981 30.8177 212.099 32.2422 212.668 32.6213C213.237 33.0003 214.257 32.3339 214.257 32.3339L215.726 30.8408C215.726 30.8408 216.445 30.0912 215.951 29.4757Z" fill="#68c40c" fill-opacity="0.337838" fill-rule="nonzero" opacity="1" stroke="#000000" stroke-linecap="butt" stroke-linejoin="round" stroke-width="0.421336"/>
<path d="M214.286 15.0218C214.286 15.0218 215.311 13.2347 216.486 12.1987C217.66 11.1627 218.451 11.3561 218.985 10.8777C219.52 10.3994 218.624 10.2853 218.624 10.2853L215.687 10.3194L215.341 9.87313L214.361 9.90271L213.857 10.473C213.857 10.473 211.748 10.3278 210.968 10.8363C210.188 11.3448 210.737 12.507 210.737 12.507L211.436 13.1445L210.892 13.7867L206.833 12.7897L206.128 10.931L206.072 10.1824L207.174 9.79144L207.494 8.32348L206.259 8.0367L206.797 6.88413C206.797 6.88413 206.951 5.62607 206.688 5.24118C206.425 4.85629 205.744 5.34457 205.744 5.34457L204.261 6.67337L204.05 7.56095L202.441 7.92065L202.366 9.37666L203.711 9.7756L203.829 11.1985L203.508 12.7024L199.797 13.6092L199.131 12.4262L200.008 11.2281C200.008 11.2281 199.942 9.1583 199.616 8.92266C199.302 8.696 198.069 8.89214 196.741 9.52304C195.412 10.1539 194.587 10.6817 194.302 11.4463C194.14 11.8794 195.422 12.5134 195.422 12.5134L197.111 13.4129L197.38 14.6768C197.38 14.6768 197.769 15.8117 198.347 15.8675C198.924 15.9233 199.291 14.9808 199.688 14.8999C201.379 14.5555 202.516 14.1298 205.015 14.1073C207.513 14.0848 207.604 14.201 209.682 14.8099C211.759 15.4187 212.273 16.1731 213.325 16.5428C213.996 16.7786 214.019 15.8865 214.019 15.8865L214.286 15.0218Z" fill="#5309cd" fill-rule="nonzero" opacity="1" stroke="#8b8b8b" stroke-linecap="butt" stroke-linejoin="round" stroke-width="0.421336"/>
<path d="M210.719 80.125C210.719 80.125 210.66 80.2286 210.594 80.3438C210.632 80.2686 210.483 80.4912 210.438 80.5625C210.346 80.7068 210.245 80.8535 210.156 81C210.111 81.0747 209.976 81.2862 210.031 81.2188C210.14 81.0859 210.058 81.2286 209.969 81.4688C209.938 81.57 209.992 81.6567 210.094 81.6875C210.195 81.7183 210.282 81.6638 210.312 81.5625C210.371 81.3434 210.342 81.4661 210.375 81.3438C210.4 81.2648 210.416 81.1738 210.438 81.0938C210.506 80.8155 210.479 80.9008 210.562 80.625C210.587 80.5435 210.675 80.2921 210.656 80.375C210.619 80.5353 210.719 80.125 210.719 80.125Z" fill="#5e5e5e" fill-rule="nonzero" opacity="1" stroke="none"/>
<path d="M211.281 78.9688C211.281 78.9688 210.447 80.3895 210.531 80.25C210.615 80.1098 210.915 79.6968 210.844 79.8438C210.702 80.1359 210.535 80.4245 210.344 80.6875C210.248 80.8192 210.329 80.682 209.812 81.5312C209.762 81.6244 209.813 81.7308 209.906 81.7812C209.999 81.8317 210.106 81.8119 210.156 81.7188C210.717 80.3393 210.78 80.1907 210.719 80.3438C210.657 80.4971 210.514 80.9574 210.594 80.8125C210.752 80.5249 210.851 80.2228 210.938 79.9062C210.981 79.747 211.281 78.9687 211.281 78.9688Z" fill="#5e5e5e" fill-rule="nonzero" opacity="1" stroke="none"/>
<path d="M210.114 22.6187C210.35 22.8597 210.207 22.7798 210.546 22.8547" fill="none" opacity="1" stroke="#5e5e5e" stroke-linecap="butt" stroke-linejoin="round" stroke-width="0.421336"/>
<path d="M210.114 22.6187C209.951 22.7681 210.407 22.9495 210.543 22.9795C210.72 23.0185 210.856 23.1959 211.027 23.2417C211.384 23.338 211.672 23.4082 212.054 23.418" fill="none" opacity="1" stroke="#5e5e5e" stroke-linecap="butt" stroke-linejoin="round" stroke-width="0.421336"/>
<path d="M191.598 36.3488C191.947 36.1908 192.811 37.2422 193.03 37.4644C193.735 38.183 193.603 39.4177 193.764 40.3106C193.808 40.5605 193.686 40.8443 193.744 41.0914C193.856 41.58 193.824 42.398 193.584 42.8359" fill="none" opacity="1" stroke="#5e5e5e" stroke-linecap="butt" stroke-linejoin="round" stroke-width="0.421336"/>
<path d="M192.055 36.5093C192.241 36.4252 192.539 36.4845 192.747 36.4899C193.741 36.5153 194.488 37.7087 194.652 38.6221C194.683 38.795 194.637 39.0215 194.715 39.1817" fill="none" opacity="1" stroke="#5e5e5e" stroke-linecap="butt" stroke-linejoin="round" stroke-width="0.421336"/>
<path d="M191.943 36.3948C193.049 36.157 193.307 35.7573 194.091 35.0362C194.35 34.798 194.698 34.6405 194.878 34.3123" fill="none" opacity="1" stroke="#5e5e5e" stroke-linecap="butt" stroke-linejoin="round" stroke-width="0.421336"/>
<path d="M212.871 39.149C211.535 39.1148 210.406 39.8642 209.602 40.8499C209.386 41.114 208.895 41.4682 208.885 41.8353" fill="none" opacity="1" stroke="#5e5e5e" stroke-linecap="butt" stroke-linejoin="round" stroke-width="0.421336"/>
<path d="M212.263 38.8732C211.434 38.852 210.607 38.9356 209.801 39.0704C209.266 39.1598 208.201 40.3533 207.952 40.8076" fill="none" opacity="1" stroke="#5e5e5e" stroke-linecap="butt" stroke-linejoin="round" stroke-width="0.421336"/>
<path d="M191.238 43.4741C191.509 43.7493 191.855 44.1068 192.051 44.4301C192.22 44.7092 192.238 44.9556 192.468 45.1898C192.666 45.3922 192.845 45.623 193.04 45.8212C193.065 45.8468 193.086 45.9172 193.086 45.9172C193.086 45.9172 193.062 45.8493 193.04 45.8212C192.908 45.6539 192.701 45.5732 192.56 45.4293C192.12 44.9813 191.721 44.4773 191.273 44.0206C191.155 43.9007 191.14 43.6756 191.04 43.5402C191.013 43.5037 190.901 43.4574 190.945 43.4429C191.038 43.4118 191.17 43.4051 191.238 43.4741Z" fill="none" opacity="1" stroke="#5e5e5e" stroke-linecap="butt" stroke-linejoin="round" stroke-width="0.421336"/>
<path d="M201.201 24.8928C201.201 24.8928 198.157 24.9281 196.756 27.0459C195.355 29.1637 194.937 47.7992 194.956 51.597C194.976 55.3948 192.627 78.7303 191.124 84.654C190.621 86.6361 196.407 85.657 196.407 85.657C217.503 84.724 215.927 85.8497 217.997 84.4358C218.654 83.9869 218.028 83.3716 216.964 81.5499C212.19 71.459 211.328 66.853 210.126 62.3108C209.171 58.7042 206.768 50.8494 207.112 42.5722C207.236 39.5712 207.519 36.5271 208.64 33.4457C209.853 30.114 210.641 25.7401 210.086 26.419C206.176 31.2022 203.068 30.3435 203.068 30.3435C203.068 30.3435 201.483 30.1313 201.643 27.4912C201.71 26.3835 202.723 26.8203 202.84 25.5496C202.965 24.2006 201.201 24.8928 201.201 24.8928Z" fill="#4384b3" fill-rule="nonzero" opacity="1" stroke="#000000" stroke-linecap="butt" stroke-linejoin="round" stroke-width="0.421336"/>
<path d="M210.063 81.4799C210.015 81.4547 210.642 80.4486 210.782 80.2774C211.258 79.6945 211.262 78.6624 211.903 78.2714C212.274 78.045 212.873 78.4347 213.194 78.6004C213.957 78.9943 215.045 79.9839 215.916 80.0062" fill="none" opacity="1" stroke="#5e5e5e" stroke-linecap="butt" stroke-linejoin="round" stroke-width="0.421336"/>
<path d="M211.494 76.3371C211.715 76.2373 212.313 76.5855 212.594 76.6613C212.798 76.7162 213.131 76.9619 213.131 76.9619C213.131 76.9619 213.516 77.2168 213.647 77.3172C214.292 77.8115 214.728 78.0678 215.3 78.651" fill="none" opacity="1" stroke="#5e5e5e" stroke-linecap="butt" stroke-linejoin="round" stroke-width="0.421336"/>
<path d="M202.209 48.0195C202.084 48.4563 202.109 49.0743 202.171 49.4983C202.22 49.8309 202.132 50.1779 202.069 50.4946C201.981 50.9363 202.103 51.4173 202.034 51.8626C201.678 54.1534 201.772 56.5087 202.048 58.7811C202.605 63.3663 203.742 67.8331 204.411 72.4191C204.513 73.1158 204.846 73.7775 204.97 74.4682C205.032 74.8118 205.271 75.189 205.441 75.4791C205.704 75.9293 205.862 76.5177 206.051 77.0116C206.837 79.0621 207.706 81.1267 209.033 82.9333C209.525 83.6043 209.729 84.3099 210.324 84.9158" fill="none" opacity="1" stroke="#5e5e5e" stroke-linecap="butt" stroke-linejoin="round" stroke-width="0.421336"/>
<path d="M197.344 48.875C197.227 48.8795 197.152 48.9769 197.156 49.0938C197.184 49.7892 197.381 50.4138 197.5 51.0938C197.626 51.8086 197.688 52.561 197.781 53.2812C197.955 54.625 197.979 55.9694 198.156 57.3125C198.403 59.1877 198.86 61.0268 199.25 62.875C200.008 66.4658 200.558 70.0673 201.812 73.5312C202.585 75.6648 203.743 77.6568 204.906 79.5938C206.05 81.4987 207.276 83.2669 208.625 85.0312C208.7 85.1294 208.839 85.1688 208.938 85.0938C209.036 85.0187 209.075 84.8794 209 84.7812C207.392 82.6791 205.943 80.4959 204.594 78.2188C203.682 76.681 202.83 75.09 202.219 73.4062C200.968 69.9631 200.414 66.3509 199.656 62.7812C199.267 60.9442 198.84 59.1143 198.594 57.25C198.416 55.9075 198.361 54.562 198.188 53.2188C198.094 52.492 198.033 51.7526 197.906 51.0312C197.79 50.3706 197.619 49.7377 197.594 49.0625C197.589 48.9456 197.461 48.8704 197.344 48.875Z" fill="#5e5e5e" fill-rule="nonzero" opacity="1" stroke="none"/>
<path d="M197.094 70.3125C196.978 70.3265 196.892 70.4464 196.906 70.5625C197.02 71.4976 197.266 72.3208 197.531 73.2188C197.749 73.9546 197.884 74.6965 198.188 75.4062C198.658 76.5073 199.31 77.5173 199.938 78.5312C200.522 79.4746 201.055 80.3008 201.875 81.0625C202.252 81.4124 202.79 81.5721 203.219 81.8438C203.94 82.3004 204.612 82.8404 205.344 83.2812C206.02 83.6884 206.759 83.9147 207.438 84.3125C207.544 84.3749 207.688 84.3254 207.75 84.2188C207.812 84.1121 207.763 83.9999 207.656 83.9375C206.978 83.5416 206.236 83.3118 205.562 82.9062C204.833 82.4674 204.157 81.8908 203.438 81.4375C203.036 81.185 202.506 81.0756 202.156 80.75C201.232 79.89 200.668 78.8692 200 77.8125C199.406 76.8726 198.769 75.9026 198.406 74.8438C198.211 74.2747 198.108 73.6696 197.938 73.0938C197.678 72.2186 197.454 71.4117 197.344 70.5C197.33 70.3839 197.21 70.2985 197.094 70.3125Z" fill="#5e5e5e" fill-rule="nonzero" opacity="1" stroke="none"/>
<path d="M195.281 47.9688C195.164 47.9703 195.061 48.0705 195.062 48.1875C195.073 48.9712 195.276 49.7214 195.344 50.5C195.409 51.2545 195.398 51.9986 195.5 52.75C195.659 53.9187 195.912 55.0803 196.062 56.25C196.351 58.49 196.456 60.7567 196.688 63C196.886 64.924 197.463 66.8247 197.844 68.7188C197.868 68.8399 197.973 68.8994 198.094 68.875C198.215 68.8506 198.306 68.7461 198.281 68.625C197.903 66.7456 197.324 64.8467 197.125 62.9375C196.891 60.6906 196.763 58.4306 196.469 56.1875C196.315 55.0171 196.067 53.8882 195.906 52.7188C195.804 51.9746 195.847 51.2161 195.781 50.4688C195.714 49.7011 195.51 48.9599 195.5 48.1875C195.498 48.0705 195.398 47.9672 195.281 47.9688Z" fill="#5e5e5e" fill-rule="nonzero" opacity="1" stroke="none"/>
<path d="M195.031 57.3438C194.915 57.3346 194.822 57.4459 194.812 57.5625C194.686 59.1786 194.916 60.7582 194.906 62.375C194.895 64.2245 194.807 66.0868 194.812 67.9375C194.819 70.0135 194.702 72.0811 194.812 74.1562C194.899 75.7813 195.199 77.356 195.375 78.9688C195.473 79.8713 195.414 80.7841 195.5 81.6875C195.53 82.0052 195.688 82.2641 195.781 82.5625C196.017 83.3199 196.196 84.1156 196.438 84.875C196.475 84.9928 196.601 85.0374 196.719 85C196.837 84.9626 196.881 84.8365 196.844 84.7188C196.603 83.9601 196.455 83.1943 196.219 82.4375C196.136 82.1734 195.963 81.9365 195.938 81.6562C195.856 80.7502 195.911 79.8424 195.812 78.9375C195.637 77.3329 195.338 75.7417 195.25 74.125C195.137 72.0574 195.228 70.0061 195.219 67.9375C195.209 65.7924 195.37 63.6117 195.312 61.4688C195.277 60.1593 195.115 58.905 195.219 57.5938C195.228 57.4771 195.148 57.3529 195.031 57.3438Z" fill="#5e5e5e" fill-rule="nonzero" opacity="1" stroke="none"/>
<path d="M194.031 66.4375C193.915 66.425 193.825 66.5087 193.812 66.625C193.708 67.6023 193.716 68.5512 193.688 69.5312C193.616 72.0371 193.503 74.4914 193.625 77C193.631 77.1234 193.752 77.2248 193.875 77.2188C193.998 77.2127 194.1 77.0922 194.094 76.9688C193.97 74.473 194.06 72.0562 194.125 69.5625C194.15 68.5935 194.115 67.6224 194.219 66.6562C194.231 66.5399 194.148 66.45 194.031 66.4375Z" fill="#5e5e5e" fill-rule="nonzero" opacity="1" stroke="none"/>
<path d="M218.719 37.25C218.187 37.297 217.694 37.5768 217.281 37.9062C217.154 38.0081 217.013 38.1263 216.906 38.25C216.853 38.3119 216.668 38.4437 216.75 38.4375C217.251 38.3996 216.735 38.4362 216.625 38.625C216.566 38.7261 216.618 38.8787 216.719 38.9375C216.82 38.9963 216.941 38.9449 217 38.8438C218.252 38.4175 218.641 38.2974 218.25 38.4375C217.878 38.5709 217.487 38.6463 217.094 38.6875C217.029 38.6943 217.176 38.5801 217.219 38.5312C217.309 38.4281 217.424 38.3031 217.531 38.2188C217.88 37.9446 218.334 37.7243 218.781 37.6875C218.886 37.6789 219.007 37.7166 219.125 37.75C219.3 37.67 219.492 37.6307 219.656 37.5312C219.659 37.5295 219.453 37.3237 219.219 37.2812C219.056 37.2519 218.883 37.2355 218.719 37.25ZM219.125 37.75C218.823 37.8884 218.535 38.0574 218.219 38.1562C217.89 38.2591 218.69 38.003 219.312 37.8125C219.284 37.7963 219.269 37.7946 219.25 37.7812C219.214 37.7563 219.168 37.7623 219.125 37.75ZM219.312 37.8125C219.349 37.8331 219.4 37.8586 219.375 37.875C219.028 38.1035 219.365 37.8739 219.5 38C219.59 38.0842 219.728 38.0905 219.812 38C219.897 37.9095 219.903 37.7404 219.812 37.6562C219.315 37.8079 219.597 37.7254 219.312 37.8125Z" fill="#5e5e5e" fill-rule="nonzero" opacity="1" stroke="none"/>
<path d="M219.875 37.7812C219.775 37.72 219.624 37.7441 219.562 37.8438C219.501 37.9434 219.557 38.0637 219.656 38.125C219.898 38.5979 219.993 38.8418 219.875 38.5938C219.829 38.4964 219.792 38.3497 219.875 38.2812C219.944 38.2247 220.046 38.3655 220.125 38.4062C220.202 38.4457 220.264 38.4977 220.344 38.5312C220.514 38.6033 220.694 38.6475 220.875 38.6875C221.394 38.802 222.08 38.508 222.469 38.9375C222.712 39.2064 222.267 39.7039 222 39.6875C221.729 39.6708 220.456 39.4147 220.344 39.2812C220.167 39.0712 220.359 39.2627 220.125 39.0625C220.077 39.0221 220.026 39.0886 219.969 39.0938C220.014 39.2746 220.022 39.4552 220.094 39.625C220.196 39.8644 220.856 39.8711 221.062 39.9062C221.766 40.0259 222.316 40.3758 222.812 39.5938C222.897 39.4611 222.964 39.2816 222.969 39.125C223 38.0049 221.598 38.3945 220.938 38.25C220.714 38.2011 220.516 38.1359 220.312 38.0312C220.24 37.9941 220.145 37.8436 220.094 37.9062C219.94 38.0922 220.111 37.9262 219.875 37.7812ZM219.969 39.0938C219.926 38.923 219.844 38.768 219.844 38.5938C219.844 38.4454 219.847 38.8535 219.844 39.0938C219.88 39.063 219.924 39.0978 219.969 39.0938ZM219.844 39.0938C219.835 39.1014 219.82 39.0844 219.812 39.0938C219.733 39.1879 219.75 39.3263 219.844 39.4062C219.849 39.0894 219.842 39.2439 219.844 39.0938Z" fill="#5e5e5e" fill-rule="nonzero" opacity="1" stroke="none"/>
<path d="M219.469 38.9375C219.372 38.8606 219.233 38.872 219.156 38.9688C218.354 39.5012 218.101 39.6584 218.344 39.5C218.542 39.371 218.773 39.252 219 39.1875C219.073 39.1667 218.893 39.3165 218.844 39.375C218.802 39.4252 218.765 39.4536 218.719 39.5C218.495 39.7237 218.216 39.8367 217.938 39.9688C217.885 39.9934 217.807 40.0164 217.75 40.0312C217.725 40.0379 217.668 40.0485 217.688 40.0312C217.907 39.841 217.681 40.0378 217.562 40.0312C217.446 40.0256 217.349 40.1332 217.344 40.25C217.338 40.3668 217.414 40.4631 217.531 40.4688C218.519 39.864 218.789 39.6864 218.531 39.8438C218.238 40.0225 217.946 40.2423 217.688 40.4688C217.647 40.5041 217.792 40.4498 217.844 40.4375C217.931 40.4169 218.013 40.381 218.094 40.3438C218.422 40.1928 218.764 40.0696 219.031 39.8125C219.088 39.7577 219.136 39.7163 219.188 39.6562C219.24 39.5947 219.421 39.4452 219.344 39.4688C219.055 39.5566 219.33 39.4628 219.5 39.25C219.577 39.1533 219.565 39.0144 219.469 38.9375Z" fill="#5e5e5e" fill-rule="nonzero" opacity="1" stroke="none"/>
<path d="M218.719 40.1875C218.619 40.2494 218.594 40.4007 218.656 40.5C219.271 40.567 219.033 40.5341 219.281 40.5625C219.186 40.4878 219.062 40.4109 219.094 40.4062C219.44 40.3553 219.109 40.4062 219.031 40.2812C218.969 40.182 218.818 40.1256 218.719 40.1875ZM219.281 40.5625C219.325 40.5968 219.344 40.6026 219.375 40.625C219.614 40.6271 219.857 40.6242 220.094 40.6562C220.315 40.6862 219.604 40.5995 219.281 40.5625ZM219.375 40.625C219.167 40.6232 218.957 40.613 218.75 40.625C218.748 40.6251 218.946 40.8884 218.969 40.9062C219.098 41.007 219.279 41.0878 219.438 41.125C219.885 41.2302 220.403 41.1687 220.844 41.0625C220.972 41.0316 221.334 41.0015 221.219 40.9375C220.874 40.7466 221.226 40.9633 221.5 40.8125C221.608 40.7521 221.654 40.6078 221.594 40.5C221.533 40.3922 221.389 40.3459 221.281 40.4062C220.155 40.335 219.807 40.3175 220.156 40.3438C220.463 40.3668 220.788 40.3926 221.062 40.5312C221.159 40.5803 220.855 40.5994 220.75 40.625C220.627 40.6548 220.5 40.6988 220.375 40.7188C220.081 40.7657 219.723 40.7928 219.438 40.6875C219.435 40.6865 219.399 40.6425 219.375 40.625Z" fill="#5e5e5e" fill-rule="nonzero" opacity="1" stroke="none"/>
<path d="M222.625 40.5625C222.249 40.7767 222.456 40.663 222.25 40.7812C222.396 40.7223 222.005 40.973 221.875 41.0625C221.562 41.2779 221.248 41.4876 220.906 41.6562C220.75 41.7334 220.487 41.8434 220.531 41.8125C220.841 41.595 220.537 41.8283 220.344 41.875C220.23 41.9025 220.16 42.0113 220.188 42.125C220.215 42.2387 220.324 42.3088 220.438 42.2812C221.656 41.6103 221.932 41.4353 221.656 41.5938C221.316 41.7896 220.979 41.9952 220.656 42.2188C220.592 42.2634 220.802 42.1853 220.875 42.1562C221.016 42.1 221.18 42.0105 221.312 41.9375C221.594 41.7827 221.859 41.5855 222.125 41.4062C222.253 41.3201 222.643 41.0991 222.5 41.1562C222.205 41.2738 222.501 41.1651 222.875 40.9375C222.98 40.873 223.002 40.7304 222.938 40.625C222.873 40.5196 222.73 40.498 222.625 40.5625Z" fill="#5e5e5e" fill-rule="nonzero" opacity="1" stroke="none"/>
<path d="M222.719 41.5C221.69 42.5482 221.381 42.8816 221.688 42.5625C221.864 42.378 222.212 42.2181 222.156 41.9688C222.103 41.7337 221.823 42.3259 221.656 42.5C221.434 42.7327 221.232 42.9709 221 43.1875C220.938 43.2455 220.869 43.3112 220.812 43.375C220.779 43.4131 220.682 43.5346 220.719 43.5C221.042 43.1981 220.731 43.4986 220.656 43.625C220.597 43.7259 220.618 43.8471 220.719 43.9062C220.82 43.9654 220.941 43.9134 221 43.8125C221.991 42.827 222.166 42.6748 222 42.8438C221.844 43.0019 221.662 43.1296 221.5 43.2812C221.659 43.1137 221.807 42.9461 221.969 42.7812C222.132 42.6151 222.341 42.1182 222.469 42.3125C222.599 42.5105 222.475 42.2924 223 41.8438C223.094 41.7633 223.112 41.625 223.031 41.5312C222.951 41.4375 222.812 41.4195 222.719 41.5Z" fill="#5e5e5e" fill-rule="nonzero" opacity="1" stroke="none"/>
<path d="M219.094 41.3125C217.459 41.4076 216.941 41.4315 217.438 41.4062C217.91 41.3822 218.405 41.3799 218.875 41.4375C218.959 41.4478 218.733 41.5272 218.656 41.5625C218.506 41.6318 218.315 41.7035 218.156 41.75C217.63 41.9039 217.156 41.8012 216.625 41.75C216.451 41.7332 216.291 41.7126 216.125 41.6562C216.074 41.639 215.916 41.6033 215.969 41.5938C216.458 41.5057 215.968 41.5845 215.812 41.5C215.71 41.4443 215.587 41.4909 215.531 41.5938C215.476 41.6966 215.522 41.8193 215.625 41.875C217.474 41.7867 218.008 41.7585 217.469 41.7812C216.909 41.8048 216.333 41.8712 215.781 41.9688C215.757 41.9731 216.001 42.0485 216.188 42.0938C216.329 42.1282 216.449 42.1411 216.594 42.1562C217.181 42.2177 217.696 42.3223 218.281 42.1562C218.465 42.1042 218.67 42.0481 218.844 41.9688C218.93 41.9295 219.187 41.8556 219.094 41.8438C218.558 41.7762 219.083 41.8212 219.312 41.6875C219.419 41.6251 219.469 41.4816 219.406 41.375C219.344 41.2684 219.2 41.2501 219.094 41.3125Z" fill="#5e5e5e" fill-rule="nonzero" opacity="1" stroke="none"/>
<path d="M201.438 22.9688C201.327 23.008 201.273 23.1398 201.312 23.25C201.928 23.6052 201.59 23.3954 201.938 23.5938C201.873 23.4943 201.723 23.3189 201.812 23.3438C202.387 23.5028 201.812 23.355 201.719 23.0938C201.68 22.9835 201.548 22.9295 201.438 22.9688ZM201.406 23.5312C201.294 23.4971 201.506 23.7412 201.562 23.8438C201.672 24.0437 201.853 24.2627 202 24.4375C202.483 25.0128 203.248 25.2724 203.969 25.4062C204.213 25.4516 204.472 25.4356 204.719 25.4375C204.793 25.4381 204.998 25.4814 204.938 25.4375C204.391 25.0391 204.948 25.4182 205.156 25.4375C205.279 25.4487 205.395 25.3731 205.406 25.25C205.417 25.127 205.311 25.0112 205.188 25C203.448 24.0438 202.939 23.7893 203.469 24.0625C203.996 24.3346 204.49 24.649 204.969 25C205.034 25.048 204.8 24.9693 204.719 24.9688C204.639 24.9682 204.579 24.9697 204.5 24.9688C204.371 24.9673 204.192 24.9922 204.062 24.9688C203.449 24.8572 202.728 24.6476 202.312 24.1562C202.236 24.0663 202.166 23.9543 202.094 23.8438C201.865 23.7438 201.645 23.604 201.406 23.5312ZM202.094 23.8438C202.475 24.0105 202.885 24.1457 203.25 24.3438C203.65 24.5603 202.654 24.0342 201.938 23.625C201.978 23.6975 202.043 23.7659 202.094 23.8438Z" fill="#5e5e5e" fill-rule="nonzero" opacity="1" stroke="none"/>
<path d="M203.688 22.6562C202.882 22.7298 202.785 22.7254 202.875 22.7188C202.97 22.7118 203.248 22.7265 203.156 22.75C202.98 22.7952 202.806 22.7984 202.625 22.7812C202.535 22.7728 202.607 22.7748 202.062 22.7812C201.946 22.7821 201.874 22.883 201.875 23C201.876 23.117 201.977 23.2196 202.094 23.2188C202.939 23.1533 203.036 23.1512 202.938 23.1562C202.839 23.1612 202.527 23.2073 202.625 23.2188C202.819 23.2413 203.028 23.2295 203.219 23.1875C203.315 23.1662 203.23 23.1934 203.781 23.0938C203.903 23.0711 203.96 22.934 203.938 22.8125C203.915 22.691 203.809 22.6336 203.688 22.6562Z" fill="#5e5e5e" fill-rule="nonzero" opacity="1" stroke="none"/>
<path d="M205.25 18.9375C205.144 18.8885 205.018 18.925 204.969 19.0312C205.275 19.3384 205.214 19.2778 205.281 19.3438C205.377 19.3674 205.282 19.3528 205.344 19.2188C205.393 19.1125 205.356 18.9865 205.25 18.9375ZM205.281 19.3438C205.276 19.3424 205.258 19.3961 205.25 19.4062C205.326 19.4668 205.429 19.4985 205.5 19.5625C205.578 19.6328 205.328 19.3899 205.281 19.3438ZM205.25 19.4062C205.14 19.3189 205.037 19.1997 204.906 19.1562C204.767 19.1103 204.598 20.0604 204.719 20.25C204.88 20.5037 205.45 20.4626 205.688 20.4062C205.748 20.3919 206.086 20.2455 206 20.125C205.851 19.9172 205.985 20.1162 206 20.0625C206.033 19.9434 205.963 19.8455 205.844 19.8125C205.735 19.7825 205.669 19.8688 205.625 19.9688C205.492 20.1455 205.515 19.7013 205.469 19.5938C205.43 19.5031 205.481 19.5952 205.594 19.9688C205.59 19.9644 205.544 20.0019 205.312 20C205.214 19.9992 205.066 19.9954 205.062 19.9688C205.054 19.8979 205.179 19.4928 205.25 19.4062Z" fill="#5e5e5e" fill-rule="nonzero" opacity="1" stroke="none"/>
<path d="M205.281 17.8438C205.36 17.7881 204.931 17.9434 204.875 17.9688C204.681 18.0563 204.493 18.195 204.375 18.375C204.322 18.4555 204.291 18.5381 204.25 18.625C204.206 18.7179 204.023 18.9176 204.125 18.9062C204.395 18.8762 204.122 18.9097 204.031 19.2188C203.997 19.3374 204.069 19.4655 204.188 19.5C204.306 19.5345 204.434 19.4624 204.469 19.3438C204.981 18.8028 205.138 18.642 204.969 18.8125C204.853 18.9291 204.727 19.0597 204.562 19.0625C204.533 19.063 204.625 18.796 204.75 18.5938C204.799 18.5138 204.894 18.516 204.969 18.4688C204.98 18.4593 204.989 18.4472 205 18.4375C205.213 18.2541 205.402 18.0494 205.594 17.8438C205.609 17.8274 205.334 17.7985 205.281 17.8438ZM205 18.4375C205.107 18.3778 205.195 18.3141 205.312 18.2812C205.346 18.272 205.356 18.2447 205.406 18.2188C205.39 18.2567 205.422 18.2092 205.5 18.25C205.604 18.3041 205.727 18.26 205.781 18.1562C205.835 18.0525 205.791 17.9291 205.688 17.875C204.999 18.4311 204.942 18.4788 205 18.4375Z" fill="#5e5e5e" fill-rule="nonzero" opacity="1" stroke="none"/>
<path d="M202.469 18.8438C201.916 18.5001 201.015 18.9533 201.031 19.625C201.039 19.9562 201.046 19.6549 201.188 20.0625C201.245 20.1645 201.367 20.1823 201.469 20.125C201.571 20.0677 201.62 19.9457 201.562 19.8438C201.634 19.9003 201.688 19.9778 201.625 19.9062C200.754 18.9128 203.299 19.1388 202.094 19.875C202.033 19.9119 201.977 19.9324 201.906 19.9375C201.811 19.9444 201.897 19.929 201.688 19.9375C201.564 19.9448 201.461 20.0642 201.469 20.1875C201.471 20.2202 201.517 20.2227 201.531 20.25C201.675 20.3227 201.84 20.3711 202 20.375C202.736 20.3928 203.136 19.2586 202.469 18.8438ZM201.531 20.25C201.502 20.2352 201.464 20.2374 201.438 20.2188C201.117 19.9962 201.449 20.2302 201.719 20.4062C201.628 20.4116 201.571 20.3254 201.531 20.25Z" fill="#5e5e5e" fill-rule="nonzero" opacity="1" stroke="none"/>
<path d="M186.188 31.25C186.091 31.1845 185.941 31.2156 185.875 31.3125C185.81 31.4094 185.841 31.5283 185.938 31.5938C186.144 32.1549 186.195 32.2802 186.156 32.1562C186.113 32.0188 186.078 31.8863 186.125 31.75C186.176 31.6012 186.515 32.5629 186.375 32.5C186.256 32.4468 186.36 32.4771 186.344 32.7188C186.336 32.8421 186.439 32.9609 186.562 32.9688C186.686 32.9766 186.805 32.8733 186.812 32.75C186.501 31.9992 186.432 31.816 186.5 32C186.568 32.1823 186.649 32.3953 186.812 32.5C186.893 32.5512 186.826 32.3129 186.812 32.2188C186.786 32.0366 186.723 31.8139 186.625 31.6562C186.571 31.5698 186.441 31.3416 186.406 31.4375C186.34 31.6224 186.43 31.4159 186.188 31.25Z" fill="#5e5e5e" fill-rule="nonzero" opacity="1" stroke="none"/>
<path d="M185.781 28C185.218 28.6037 185.409 28.4201 185.219 28.625C185.423 28.5635 185.627 28.4972 185.625 28.5C185.412 28.8245 185.652 28.4844 185.875 28.4375C185.996 28.4119 186.057 28.3084 186.031 28.1875C186.006 28.0666 185.902 27.9744 185.781 28ZM185.531 28.0625C185.574 27.9911 185.362 28.1034 185.281 28.125C185.123 28.1677 184.966 28.223 184.812 28.2812C184.413 28.4329 183.989 28.6598 183.719 29C183.495 29.2808 183.429 29.5865 183.406 29.9375C183.404 29.9688 183.43 30.3497 183.438 30.3438C183.861 30.0094 183.451 30.346 183.5 30.4688C183.544 30.5771 183.642 30.6066 183.75 30.5625C183.858 30.5184 183.919 30.4208 183.875 30.3125C184.865 29.3887 185.156 29.1069 184.875 29.375C184.556 29.6795 184.2 29.9579 183.844 30.2188C183.84 30.2216 183.841 29.897 183.844 29.875C183.869 29.6425 183.911 29.434 184.062 29.25C184.299 28.9619 184.68 28.8408 185.031 28.7188C185.203 28.5053 185.391 28.297 185.531 28.0625ZM185.031 28.7188C184.892 28.8918 184.775 29.0872 184.625 29.25C184.444 29.4459 185.006 28.8199 185.188 28.625C185.13 28.6428 185.089 28.6986 185.031 28.7188Z" fill="#5e5e5e" fill-rule="nonzero" opacity="1" stroke="none"/>
<path d="M184.844 27.4688C183.657 28.1156 183.307 28.3024 183.656 28.0938C183.936 27.9268 184.229 27.7735 184.406 27.5C184.499 27.3562 184.095 27.5899 183.938 27.6562C183.55 27.8192 183.168 28.0735 182.844 28.3438C182.738 28.4319 182.403 28.6739 182.531 28.625C182.912 28.4803 182.55 28.6204 182.469 28.75C182.407 28.8495 182.432 28.9698 182.531 29.0312C182.631 29.0927 182.751 29.0683 182.812 28.9688C183.842 28.4332 184.084 28.2989 183.844 28.4375C183.535 28.615 183.207 28.7471 182.875 28.875C182.832 28.8916 182.936 28.8134 182.969 28.7812C183.054 28.6981 183.154 28.5993 183.25 28.5312C183.505 28.3498 183.805 28.2126 184.094 28.0938C184.229 28.0382 184.583 27.8174 184.5 27.9375C184.342 28.1662 184.511 27.9402 184.875 27.9062C184.998 27.8939 185.075 27.7792 185.062 27.6562C185.05 27.5333 184.967 27.4564 184.844 27.4688Z" fill="#5e5e5e" fill-rule="nonzero" opacity="1" stroke="none"/>
<path d="M182.812 26.4375C182.863 26.3448 182.6 26.4662 182.5 26.5C182.409 26.5309 182.329 26.5693 182.25 26.625C181.911 26.8646 181.571 27.2594 181.281 27.5625C181.106 27.7464 180.99 27.9558 181.031 27.9375C181.39 27.777 181.031 27.9151 180.969 28.125C180.936 28.2374 180.981 28.3738 181.094 28.4062C181.206 28.4387 181.343 28.3624 181.375 28.25C182.188 27.5961 182.421 27.3871 182.188 27.5938C181.96 27.7957 181.674 27.9491 181.406 28.0938C181.32 28.1401 181.525 27.9445 181.594 27.875C181.635 27.8332 181.675 27.7889 181.719 27.75C181.941 27.5529 182.131 27.3319 182.344 27.125C182.422 27.049 182.549 26.9476 182.656 26.9062C182.698 26.89 182.806 26.8377 182.781 26.875C182.608 27.1337 182.786 26.8737 183 26.9375C183.119 26.9702 183.249 26.9004 183.281 26.7812C183.314 26.6621 183.244 26.5639 183.125 26.5312C182.049 27.3422 181.729 27.5639 182.031 27.3125C182.333 27.061 182.623 26.7819 182.812 26.4375Z" fill="#5e5e5e" fill-rule="nonzero" opacity="1" stroke="none"/>
<path d="M182.156 25.5625C182.021 25.4834 181.858 25.4877 181.656 25.5938C181.262 25.8011 180.987 26.2855 180.781 26.6562C180.694 26.8136 180.376 27.0342 180.531 27.125C180.77 27.2644 180.553 27.1389 180.344 27.625C180.297 27.7324 180.33 27.8598 180.438 27.9062C180.545 27.9527 180.672 27.8886 180.719 27.7812C181.326 27.045 181.554 26.756 181.312 27.0312C181.207 27.1516 181.044 27.432 180.938 27.3125C180.825 27.1858 181.073 26.9915 181.156 26.8438C181.361 26.4817 181.59 26.2073 181.938 26.0312C181.939 26.0753 181.945 26.1132 181.938 26.125C181.747 26.438 181.952 26.1434 181.938 26.3125C181.932 26.374 181.994 26.3937 182.031 26.4375C182.148 26.3349 182.294 26.2615 182.406 26.1562C182.446 26.1189 182.408 26.0547 182.406 26C182.4 25.7897 182.291 25.6416 182.156 25.5625ZM182.031 26.4375C181.815 26.6277 181.598 26.8375 181.344 26.9688C181.167 27.0601 181.654 26.7971 182.094 26.5312C182.053 26.5182 182.058 26.469 182.031 26.4375ZM182.094 26.5312C182.11 26.5363 182.108 26.561 182.125 26.5625C182.248 26.5731 182.364 26.4668 182.375 26.3438C182.088 26.521 182.265 26.4278 182.094 26.5312Z" fill="#5e5e5e" fill-rule="nonzero" opacity="1" stroke="none"/>
<path d="M181.594 30.1875C181.501 30.1158 181.353 30.1576 181.281 30.25C181.21 30.3424 181.22 30.4596 181.312 30.5312C181.583 30.7593 181.38 30.5705 181.594 30.75C181.505 30.6705 181.805 30.8758 181.906 30.9375C182.109 31.0606 182.297 31.1597 182.5 31.2812C182.998 31.579 183.439 31.9589 183.875 32.3438C184.141 32.5781 184.999 33.1517 184.656 33.0625C184.138 32.9277 184.656 33.0848 185.281 33.875C185.358 33.9718 185.497 33.9831 185.594 33.9062C185.691 33.8294 185.702 33.6905 185.625 33.5938C183.606 31.9029 182.979 31.4416 183.594 31.9062C184.026 32.2329 184.44 32.6631 184.969 32.7812C185.329 32.8618 184.435 32.274 184.156 32.0312C183.586 31.5339 183.052 31.1188 182.406 30.75C182.307 30.6932 182.223 30.6216 182.125 30.5625C182.031 30.5061 181.762 30.3338 181.844 30.4062C182.42 30.9172 181.848 30.385 181.594 30.1875Z" fill="#5e5e5e" fill-rule="nonzero" opacity="1" stroke="none"/>
<path d="M186.062 34.5625C185.956 34.6105 185.921 34.7371 185.969 34.8438C186.562 35.3733 186.754 35.5563 186.562 35.375C186.381 35.203 186.167 35.0271 185.969 34.875C185.916 34.8346 186.061 35.0045 186.094 35.0625C186.139 35.1444 186.172 35.2313 186.219 35.3125C186.35 35.5397 186.459 35.7879 186.656 35.9688C186.776 36.0783 186.939 36.0863 187.062 36C187.081 35.9873 187.108 35.9549 187.094 35.9375C186.929 35.7317 187.107 35.9505 187.156 35.9062C187.248 35.8231 187.239 35.6851 187.156 35.5938C187.081 35.5114 186.965 35.5036 186.875 35.5625C186.779 35.4189 186.685 35.2715 186.594 35.125C186.562 35.0737 186.531 35.0209 186.5 34.9688C186.462 34.9041 186.443 34.8163 186.406 34.75C186.395 34.7289 186.363 34.6666 186.375 34.6875C186.454 34.8279 186.357 34.6852 186.344 34.6562C186.296 34.5496 186.169 34.5145 186.062 34.5625Z" fill="#5e5e5e" fill-rule="nonzero" opacity="1" stroke="none"/>
<path d="M188.594 30.4375C188.474 30.4669 188.408 30.5675 188.438 30.6875C188.414 32.0621 188.391 32.4634 188.406 32.0625C188.419 31.7304 188.427 31.4095 188.531 31.0938C188.581 30.9425 188.553 31.4036 188.562 31.5625C188.588 31.992 188.594 32.4174 188.531 32.8438C188.51 32.9861 188.449 33.4246 188.438 33.2812C188.405 32.8814 188.433 33.266 188.375 33.4375C188.337 33.5483 188.42 33.6812 188.531 33.7188C188.642 33.7563 188.744 33.7046 188.781 33.5938C188.821 32.0981 188.83 31.7318 188.812 32.0938C188.791 32.5283 188.812 32.9723 188.844 33.4062C188.846 33.437 188.903 33.1325 188.938 32.9062C189.008 32.4516 189.055 31.9902 189.031 31.5312C189.022 31.3561 189.027 30.8344 188.969 31C188.849 31.3421 188.976 31.0115 188.875 30.5938C188.846 30.4737 188.714 30.4081 188.594 30.4375Z" fill="#5e5e5e" fill-rule="nonzero" opacity="1" stroke="none"/>
<path d="" fill="#5e5e5e" fill-rule="nonzero" opacity="1" stroke="none"/>
<path d="M205.469 30.1562C204.186 30.6148 203.816 30.7521 204.188 30.625C204.495 30.5197 204.804 30.3984 205.125 30.3438C205.278 30.3177 204.862 30.473 204.719 30.5312C204.331 30.6881 203.934 30.8256 203.531 30.9375C203.333 30.9927 203.071 31.0409 203.094 31.0312C203.456 30.8791 203.089 31.059 202.906 31.0938C202.791 31.1155 202.728 31.2288 202.75 31.3438C202.772 31.4587 202.885 31.5218 203 31.5C204.349 31.0307 204.667 30.9241 204.344 31.0312C203.953 31.1607 203.569 31.3132 203.188 31.4688C203.169 31.4765 203.411 31.4015 203.625 31.3438C204.044 31.2308 204.471 31.0967 204.875 30.9375C205.028 30.8771 205.507 30.7251 205.344 30.75C205.007 30.8016 205.323 30.7559 205.688 30.5625C205.796 30.5043 205.839 30.359 205.781 30.25C205.723 30.141 205.578 30.0981 205.469 30.1562Z" fill="#5e5e5e" fill-rule="nonzero" opacity="1" stroke="none"/>
<path d="M209.906 27.7188C209.791 27.674 209.67 27.7286 209.625 27.8438C208.018 28.8002 207.576 29.0752 208 28.8125C208.481 28.5143 209.004 28.2675 209.531 28.0625C209.549 28.0556 209.41 28.3684 209.406 28.375C209.33 28.5225 209.218 28.6412 209.094 28.75C208.716 29.0816 208.394 29.3706 207.906 29.5312C207.811 29.5627 207.697 29.5688 207.594 29.5938C207.352 29.7752 207.08 29.9359 206.875 30.1562C206.78 30.2586 207.174 30.1154 207.312 30.0938C207.547 30.0571 207.805 30.0101 208.031 29.9375C208.608 29.7529 209.145 29.3769 209.562 28.9375C209.705 28.788 209.795 28.5942 209.875 28.4062C209.902 28.3437 210.032 28.1926 209.969 28.2188C209.375 28.4656 209.948 28.2128 210.031 28C210.076 27.8848 210.021 27.7635 209.906 27.7188ZM207.594 29.5938C207.813 29.4298 208.02 29.2386 208.25 29.0938C208.538 28.9127 207.628 29.4452 207.281 29.6562C207.382 29.6387 207.491 29.6187 207.594 29.5938ZM207.281 29.6562C207.26 29.66 207.24 29.6841 207.219 29.6875C207.09 29.7082 206.757 29.8476 206.844 29.75C207.175 29.3776 206.842 29.7225 206.406 29.75C206.29 29.7573 206.211 29.8833 206.219 30C206.226 30.1167 206.321 30.1948 206.438 30.1875C207.286 29.6758 206.973 29.8441 207.281 29.6562Z" fill="#5e5e5e" fill-rule="nonzero" opacity="1" stroke="none"/>
<path d="M209.938 26.8125C209.882 26.839 209.857 26.8985 209.812 26.9375C209.814 26.9324 209.811 26.9738 209.812 26.9688C209.661 27.1099 209.511 27.2476 209.375 27.4062C209.104 27.7215 208.782 28.0435 208.469 28.3125C208.257 28.4937 208.028 28.6376 207.812 28.8125C207.735 28.8752 207.673 28.9394 207.594 29C207.551 29.0326 207.417 29.1069 207.469 29.0938C207.854 28.9962 207.457 29.0741 207.281 29.1875C207.183 29.2509 207.155 29.4017 207.219 29.5C207.282 29.5983 207.433 29.6259 207.531 29.5625C207.695 29.4457 207.559 29.5303 207.688 29.4375C207.706 29.4241 207.732 29.4195 207.75 29.4062C207.815 29.3588 207.79 29.3831 207.844 29.3438C207.921 29.2845 207.987 29.2182 208.062 29.1562C208.103 29.1226 208.145 29.094 208.188 29.0625C208.323 28.962 208.465 28.8522 208.594 28.75C208.772 28.6087 208.956 28.4435 209.125 28.2812C209.28 28.1318 209.411 27.9698 209.562 27.8125C209.55 27.8769 209.557 27.9765 209.531 28C209.201 28.3046 209.547 27.9954 209.5 28.1562C209.485 28.2077 209.543 28.2355 209.562 28.2812C209.695 28.215 209.84 28.166 209.969 28.0938C210.011 28.0699 209.992 28.0168 210 27.9688C210.052 27.6628 210.235 27.3331 210.25 27.0312C210.258 26.8796 210.088 26.7409 209.938 26.8125ZM209.562 28.2812C209.245 28.4405 208.924 28.6194 208.594 28.75C208.303 28.8651 208.898 28.6349 209.625 28.375C209.592 28.351 209.578 28.3181 209.562 28.2812ZM209.625 28.375C209.645 28.3899 209.631 28.43 209.656 28.4375C209.775 28.4719 209.872 28.3999 209.906 28.2812C209.626 28.38 209.821 28.3048 209.625 28.375Z" fill="#5e5e5e" fill-rule="nonzero" opacity="1" stroke="none"/>
<path d="M209.328 15.0284C209.121 15.0231 209.259 15.4258 209.261 15.6263C209.264 15.9154 209.337 16.2423 209.549 16.4581" fill="none" opacity="1" stroke="#5e5e5e" stroke-linecap="butt" stroke-linejoin="round" stroke-width="0.421336"/>
<path d="M209.452 16.2308C209.337 16.1144 209.643 16.4771 209.702 16.537C209.852 16.6905 210.233 16.7755 210.444 16.7809C211.188 16.8 211.584 16.3063 211.814 15.6917" fill="none" opacity="1" stroke="#5e5e5e" stroke-linecap="butt" stroke-linejoin="round" stroke-width="0.421336"/>
<path d="M209.581 18.2328C209.389 18.3063 210.001 18.1281 210.154 18.0227C210.592 17.7212 210.807 17.5473 211.376 17.6542C211.465 17.6709 211.667 17.6801 211.708 17.7877C211.778 17.9701 211.466 18.5956 211.323 18.7272C211.214 18.8277 210.89 18.8697 210.75 18.9374C210.422 19.0962 210.059 19.3495 210.409 20.0734C210.509 20.2785 210.725 20.9265 210.887 21.0911" fill="none" opacity="1" stroke="#5e5e5e" stroke-linecap="butt" stroke-linejoin="round" stroke-width="0.421336"/>
<path d="M210.038 22.5418C209.881 22.5378 210.346 22.6032 210.5 22.6286C210.629 22.6498 210.762 22.6507 210.886 22.6885C211.225 22.7917 211.717 23.4849 211.708 23.8588C211.697 24.2739 211.32 24.2826 211.074 24.4172C210.77 24.5834 210.311 25.2134 210.245 25.5453C210.091 26.3193 211.365 26.9033 212.019 26.8149C212.385 26.7655 212.788 26.4524 213.091 26.2678" fill="none" opacity="1" stroke="#5e5e5e" stroke-linecap="butt" stroke-linejoin="round" stroke-width="0.421336"/>
<path d="M213.354 17.0054C213.229 16.8279 213.721 17.5748 213.743 17.9397C213.779 18.53 213.571 19.0779 213.442 19.6309C213.393 19.8396 212.776 20.3171 213.046 20.1044" fill="none" opacity="1" stroke="#5e5e5e" stroke-linecap="butt" stroke-linejoin="round" stroke-width="0.421336"/>
<path d="M207.89 14.7417C207.92 14.6374 208.027 14.4454 208.027 14.4454C208.027 14.4454 207.998 14.5606 207.996 14.6195C207.992 14.7993 207.961 14.9839 207.956 15.1681C207.947 15.5528 207.982 15.9263 208.108 16.2963C208.266 16.7605 208.752 16.9175 208.832 17.2642" fill="none" opacity="1" stroke="#5e5e5e" stroke-linecap="butt" stroke-linejoin="round" stroke-width="0.421336"/>
<path d="M205.249 15.0987C205.133 15.039 205.495 15.1902 205.606 15.2578C205.848 15.4055 206.053 15.4169 206.312 15.5346C206.499 15.6195 206.841 15.6968 207.116 15.6715C207.522 15.6339 207.87 15.669 208.042 15.8449" fill="none" opacity="1" stroke="#5e5e5e" stroke-linecap="butt" stroke-linejoin="round" stroke-width="0.421336"/>
<path d="M211.445 28.0744C211.287 27.7493 210.615 29.5773 210.986 29.8615C211.13 29.9721 211.344 29.9803 211.497 30.0745C211.933 30.3431 212.326 30.4628 212.836 30.1838C213.128 30.0241 213.335 29.6615 213.627 29.5294" fill="none" opacity="1" stroke="#5e5e5e" stroke-linecap="butt" stroke-linejoin="round" stroke-width="0.421336"/>
<path d="M212.383 30.7218C212.274 30.6109 212.375 31.0277 212.399 31.122C212.45 31.3218 212.47 31.6523 212.613 31.827C213.042 32.3527 213.279 32.1253 213.722 31.8554" fill="none" opacity="1" stroke="#5e5e5e" stroke-linecap="butt" stroke-linejoin="round" stroke-width="0.421336"/>
<path d="M215.267 25.363C215.26 25.3512 215.57 25.8734 215.4 26.1053C215.343 26.1823 215.13 26.3605 214.848 26.4256C214.422 26.5238 213.901 26.4933 214.014 26.4913" fill="none" opacity="1" stroke="#5e5e5e" stroke-linecap="butt" stroke-linejoin="round" stroke-width="0.421336"/>
<path d="M215.109 26.3321C215.111 26.2548 215.687 26.7366 215.49 26.9783C215.285 27.2283 214.767 27.3146 214.474 27.4009C214.319 27.4465 213.953 27.6848 213.804 27.7761" fill="none" opacity="1" stroke="#5e5e5e" stroke-linecap="butt" stroke-linejoin="round" stroke-width="0.421336"/>
<path d="M211.316 22.0249C211.291 22.0076 211.247 22.0023 211.24 21.973C211.24 21.9727 211.535 21.865 211.579 21.8318C211.853 21.6216 212.047 21.472 212.366 21.3273C212.696 21.1779 212.802 20.8128 213.081 20.6211C213.239 20.5124 213.314 20.4276 213.506 20.3955C213.62 20.3765 213.716 20.4479 213.863 20.5934C214.065 20.7934 214.253 21.0056 214.4 21.1938C214.826 21.7366 215.007 22.1164 215.216 22.83" fill="none" opacity="1" stroke="#5e5e5e" stroke-linecap="butt" stroke-linejoin="round" stroke-width="0.421336"/>
<path d="M214.049 16.6795C214.316 16.7901 214.656 17.437 214.75 17.658C214.923 18.0629 214.926 19.5919 214.921 19.4272" fill="none" opacity="1" stroke="#5e5e5e" stroke-linecap="butt" stroke-linejoin="round" stroke-width="0.421336"/>
</g>
</g>
<clipPath id="ArtboardFrame">
<rect height="98.8761" width="416.449" x="0" y="0"/>
</clipPath>
<g clip-path="url(#ArtboardFrame)" id="Layer-1" vectornator:layerName="Layer 1">
<g opacity="1">
<clipPath id="ClipPath">
<path d="M106.541-6.7123L184.182-6.7123L184.182-6.7123L184.182 109.288L184.182 109.288L106.541 109.288L106.541 109.288L106.541-6.7123L106.541-6.7123Z"/>
</clipPath>
<g clip-path="url(#ClipPath)">
<path d="M148.257 87.2916C137.906 87.2916 129.768 83.9713 123.843 77.3307C117.919 70.6575 114.957 61.5104 114.957 49.8893C114.957 37.3242 118.326 27.6399 125.064 20.8365C130.923 14.9121 138.378 11.9498 147.427 11.9498C159.537 11.9498 168.391 15.9212 173.99 23.8639C177.082 28.3235 178.743 32.7994 178.97 37.2916L163.931 37.2916C162.955 33.8411 161.701 31.2369 160.172 29.4791C157.437 26.3541 153.384 24.7916 148.013 24.7916C142.545 24.7916 138.231 26.997 135.074 31.4078C131.916 35.8186 130.338 42.0605 130.338 50.1334C130.338 58.2063 132.006 64.2529 135.342 68.2731C138.679 72.2932 142.919 74.3033 148.062 74.3033C153.336 74.3033 157.356 72.5781 160.123 69.1275C161.653 67.2721 162.922 64.4889 163.931 60.7779L178.824 60.7779C177.522 68.623 174.193 75.0032 168.839 79.9186C163.484 84.8339 156.623 87.2916 148.257 87.2916Z" fill="#454545" fill-rule="nonzero" opacity="1" stroke="#f8f8f8" stroke-linecap="butt" stroke-linejoin="round" stroke-width="0.95732"/>
</g>
</g>
<g opacity="1">
<clipPath id="ClipPath_2">
<path d="M52.6794-4.89755L127.896-4.89755L127.896-4.89755L127.896 111.102L127.896 111.102L52.6794 111.102L52.6794 111.102L52.6794-4.89755L52.6794-4.89755Z"/>
</clipPath>
<g clip-path="url(#ClipPath_2)">
<path d="M116.191 25.8251C118.698 29.4058 120.407 33.2795 121.318 37.4462C122.23 41.6129 122.685 45.5842 122.685 49.3603C122.685 58.9306 120.765 67.036 116.924 73.6767C111.715 82.6285 103.675 87.1044 92.8025 87.1044L61.7966 87.1044L61.7966 15.1317L92.8025 15.1317C97.2621 15.1968 100.973 15.7177 103.935 16.6942C108.981 18.3544 113.066 21.398 116.191 25.8251ZM103.984 33.4911C101.673 29.5849 97.0994 27.6317 90.2634 27.6317L76.3962 27.6317L76.3962 74.6044L90.2634 74.6044C97.3598 74.6044 102.308 71.1051 105.107 64.1064C106.637 60.2652 107.402 55.6916 107.402 50.3857C107.402 43.0614 106.263 37.4299 103.984 33.4911Z" fill="#454545" fill-rule="nonzero" opacity="1" stroke="#f8f8f8" stroke-linecap="butt" stroke-linejoin="round" stroke-width="0.95732"/>
</g>
</g>
<g opacity="1">
<clipPath id="ClipPath_3">
<path d="M-4.04536-4.77657L71.1714-4.77657L71.1714-4.77657L71.1714 111.223L71.1714 111.223L-4.04536 111.223L-4.04536 111.223L-4.04536-4.77657L-4.04536-4.77657Z"/>
</clipPath>
<g clip-path="url(#ClipPath_3)">
<path d="M59.4664 25.9461C61.9729 29.5268 63.6819 33.4005 64.5933 37.5672C65.5048 41.7338 65.9605 45.7052 65.9605 49.4812C65.9605 59.0516 64.0399 67.157 60.1988 73.7976C54.9905 82.7495 46.9501 87.2254 36.0777 87.2254L5.07183 87.2254L5.07183 15.2527L36.0777 15.2527C40.5373 15.3178 44.2483 15.8387 47.2105 16.8152C52.2561 18.4754 56.3414 21.519 59.4664 25.9461ZM47.2593 33.6121C44.9481 29.7059 40.3746 27.7527 33.5386 27.7527L19.6714 27.7527L19.6714 74.7254L33.5386 74.7254C40.635 74.7254 45.5829 71.226 48.3824 64.2273C49.9123 60.3862 50.6773 55.8126 50.6773 50.5066C50.6773 43.1824 49.538 37.5509 47.2593 33.6121Z" fill="#454545" fill-rule="nonzero" opacity="1" stroke="#f8f8f8" stroke-linecap="butt" stroke-linejoin="round" stroke-width="0.95732"/>
</g>
</g>
<g opacity="1">
<g opacity="1">
<clipPath id="ClipPath_4">
<path d="M161.491 43.9857L416.342 43.9857L416.342 43.9857L416.342 100.149L416.342 100.149L161.491 100.149L161.491 100.149L161.491 43.9857L161.491 43.9857Z"/>
</clipPath>
<g clip-path="url(#ClipPath_4)">
<path d="M191.644 64.7963C193.698 67.371 194.725 70.4146 194.725 73.9269C194.725 77.4988 193.698 80.5535 191.644 83.091C189.591 85.6285 186.473 86.8973 182.291 86.8973C178.108 86.8973 174.991 85.6285 172.937 83.091C170.883 80.5535 169.856 77.4988 169.856 73.9269C169.856 70.4146 170.883 67.371 172.937 64.7963C174.991 62.2216 178.108 60.9342 182.291 60.9342C186.473 60.9342 189.591 62.2216 191.644 64.7963ZM186.554 68.2789C185.557 66.9692 184.129 66.3144 182.268 66.3144C180.408 66.3144 178.975 66.9729 177.971 68.2901C176.966 69.6072 176.464 71.4861 176.464 73.9269C176.464 76.3677 176.966 78.2504 177.971 79.5749C178.975 80.8995 180.408 81.5618 182.268 81.5618C184.129 81.5618 185.557 80.8995 186.554 79.5749C187.552 78.2504 188.05 76.3677 188.05 73.9269C188.05 71.4861 187.552 69.6035 186.554 68.2789Z" fill="#454545" fill-rule="nonzero" opacity="1" stroke="#f4eeed" stroke-linecap="butt" stroke-linejoin="round" stroke-width="0.95732"/>
</g>
</g>
<g opacity="1">
<clipPath id="ClipPath_5">
<path d="M161.491 43.9857L416.342 43.9857L416.342 43.9857L416.342 100.149L416.342 100.149L161.491 100.149L161.491 100.149L161.491 43.9857L161.491 43.9857Z"/>
</clipPath>
<g clip-path="url(#ClipPath_5)">
<path d="M212.942 68.4128C212.406 67.2371 211.357 66.6492 209.794 66.6492C207.978 66.6492 206.758 67.2371 206.133 68.4128C205.791 69.0826 205.619 70.0797 205.619 71.4043L205.619 86.049L199.168 86.049L199.168 61.7602L205.351 61.7602L205.351 65.3098C206.14 64.0447 206.884 63.1443 207.584 62.6085C208.819 61.656 210.419 61.1798 212.384 61.1798C214.244 61.1798 215.747 61.5891 216.893 62.4076C217.816 63.1666 218.515 64.1415 218.992 65.3321C219.825 63.9033 220.859 62.8541 222.095 62.1844C223.404 61.5146 224.863 61.1798 226.47 61.1798C227.542 61.1798 228.598 61.3881 229.64 61.8049C230.682 62.2216 231.627 62.9508 232.475 63.9926C233.16 64.841 233.621 65.8828 233.86 67.118C234.008 67.9366 234.083 69.1347 234.083 70.7122L234.038 86.049L227.519 86.049L227.519 70.556C227.519 69.6332 227.371 68.8742 227.073 68.2789C226.507 67.1478 225.466 66.5822 223.948 66.5822C222.191 66.5822 220.978 67.3115 220.309 68.77C219.966 69.5439 219.795 70.4741 219.795 71.5605L219.795 86.049L213.388 86.049L213.388 71.5605C213.388 70.1169 213.239 69.0677 212.942 68.4128Z" fill="#454545" fill-rule="nonzero" opacity="1" stroke="#f4eeed" stroke-linecap="butt" stroke-linejoin="round" stroke-width="0.95732"/>
</g>
</g>
<g opacity="1">
<clipPath id="ClipPath_6">
<path d="M161.491 43.9857L416.342 43.9857L416.342 43.9857L416.342 100.149L416.342 100.149L161.491 100.149L161.491 100.149L161.491 43.9857L161.491 43.9857Z"/>
</clipPath>
<g clip-path="url(#ClipPath_6)">
<path d="M253.594 68.4128C253.058 67.2371 252.009 66.6492 250.446 66.6492C248.631 66.6492 247.41 67.2371 246.785 68.4128C246.443 69.0826 246.272 70.0797 246.272 71.4043L246.272 86.049L239.82 86.049L239.82 61.7602L246.004 61.7602L246.004 65.3098C246.793 64.0447 247.537 63.1443 248.236 62.6085C249.472 61.656 251.072 61.1798 253.036 61.1798C254.896 61.1798 256.4 61.5891 257.546 62.4076C258.468 63.1666 259.168 64.1415 259.644 65.3321C260.477 63.9033 261.512 62.8541 262.747 62.1844C264.057 61.5146 265.515 61.1798 267.123 61.1798C268.194 61.1798 269.251 61.3881 270.293 61.8049C271.334 62.2216 272.28 62.9508 273.128 63.9926C273.812 64.841 274.274 65.8828 274.512 67.118C274.661 67.9366 274.735 69.1347 274.735 70.7122L274.691 86.049L268.172 86.049L268.172 70.556C268.172 69.6332 268.023 68.8742 267.725 68.2789C267.16 67.1478 266.118 66.5822 264.6 66.5822C262.844 66.5822 261.631 67.3115 260.961 68.77C260.619 69.5439 260.448 70.4741 260.448 71.5605L260.448 86.049L254.041 86.049L254.041 71.5605C254.041 70.1169 253.892 69.0677 253.594 68.4128Z" fill="#454545" fill-rule="nonzero" opacity="1" stroke="#f4eeed" stroke-linecap="butt" stroke-linejoin="round" stroke-width="0.95732"/>
</g>
</g>
<g opacity="1">
<clipPath id="ClipPath_7">
<path d="M161.491 43.9857L416.342 43.9857L416.342 43.9857L416.342 100.149L416.342 100.149L161.491 100.149L161.491 100.149L161.491 43.9857L161.491 43.9857Z"/>
</clipPath>
<g clip-path="url(#ClipPath_7)">
<path d="M290.407 86.8526C287.311 86.8526 284.58 85.8555 282.214 83.8612C279.847 81.8669 278.664 78.6224 278.664 74.1278C278.664 69.916 279.732 66.6864 281.868 64.4391C284.003 62.1918 286.775 61.0682 290.184 61.0682C292.208 61.0682 294.031 61.4477 295.653 62.2067C297.275 62.9657 298.615 64.1638 299.671 65.8009C300.624 67.2445 301.241 68.9188 301.524 70.8238C301.688 71.9401 301.755 73.5474 301.725 75.6459L285.071 75.6459C285.161 78.0867 285.927 79.7982 287.371 80.7805C288.249 81.3906 289.305 81.6957 290.541 81.6957C291.85 81.6957 292.915 81.3237 293.733 80.5795C294.18 80.1777 294.574 79.6196 294.916 78.9052L301.413 78.9052C301.249 80.3489 300.497 81.8148 299.158 83.3031C297.074 85.6695 294.157 86.8526 290.407 86.8526ZM290.184 66.3144C288.71 66.3144 287.568 66.7757 286.757 67.6985C285.946 68.6212 285.436 69.8713 285.228 71.4489L295.117 71.4489C295.013 69.7672 294.503 68.491 293.588 67.6203C292.673 66.7497 291.538 66.3144 290.184 66.3144Z" fill="#454545" fill-rule="nonzero" opacity="1" stroke="#f4eeed" stroke-linecap="butt" stroke-linejoin="round" stroke-width="0.95732"/>
</g>
</g>
<g opacity="1">
<clipPath id="ClipPath_8">
<path d="M161.491 43.9857L416.342 43.9857L416.342 43.9857L416.342 100.149L416.342 100.149L161.491 100.149L161.491 100.149L161.491 43.9857L161.491 43.9857Z"/>
</clipPath>
<g clip-path="url(#ClipPath_8)">
<path d="M325.679 63.0997C327.272 64.4242 328.068 66.612 328.068 69.663L328.068 86.049L321.549 86.049L321.549 71.248C321.549 69.9681 321.378 68.9858 321.036 68.3012C320.411 67.0511 319.22 66.426 317.464 66.426C315.306 66.426 313.825 67.3413 313.021 69.1719C312.605 70.1392 312.396 71.3745 312.396 72.8777L312.396 86.049L306.056 86.049L306.056 61.7602L312.195 61.7602L312.195 65.3098C313.014 64.0596 313.788 63.1592 314.517 62.6085C315.827 61.6263 317.486 61.1351 319.495 61.1351C322.01 61.1351 324.072 61.79 325.679 63.0997Z" fill="#454545" fill-rule="nonzero" opacity="1" stroke="#f4eeed" stroke-linecap="butt" stroke-linejoin="round" stroke-width="0.95732"/>
</g>
</g>
<g opacity="1">
<clipPath id="ClipPath_9">
<path d="M161.491 43.9857L416.342 43.9857L416.342 43.9857L416.342 100.149L416.342 100.149L161.491 100.149L161.491 100.149L161.491 43.9857L161.491 43.9857Z"/>
</clipPath>
<g clip-path="url(#ClipPath_9)">
<path d="M341.507 81.1823C341.76 81.4353 342.534 81.5618 343.829 81.5618C344.022 81.5618 344.227 81.5581 344.443 81.5506C344.658 81.5432 344.87 81.532 345.079 81.5172L345.079 86.2722L342.065 86.3838C339.059 86.488 337.005 85.9671 335.904 84.8211C335.189 84.0919 334.832 82.9682 334.832 81.4502L334.832 66.4706L331.439 66.4706L331.439 61.9388L334.832 61.9388L334.832 55.1522L341.127 55.1522L341.127 61.9388L345.079 61.9388L345.079 66.4706L341.127 66.4706L341.127 79.3294C341.127 80.3265 341.254 80.9442 341.507 81.1823Z" fill="#454545" fill-rule="nonzero" opacity="1" stroke="#f4eeed" stroke-linecap="butt" stroke-linejoin="round" stroke-width="0.95732"/>
</g>
</g>
<g opacity="1">
<clipPath id="ClipPath_10">
<path d="M161.491 43.9857L416.342 43.9857L416.342 43.9857L416.342 100.149L416.342 100.149L161.491 100.149L161.491 100.149L161.491 43.9857L161.491 43.9857Z"/>
</clipPath>
<g clip-path="url(#ClipPath_10)">
<path d="M350.972 73.0786C352.237 72.3493 354.098 71.8284 356.553 71.5159L358.719 71.248C359.895 71.0992 360.736 70.9131 361.242 70.6899C362.149 70.303 362.603 69.7002 362.603 68.8816C362.603 67.8845 362.257 67.1962 361.565 66.8167C360.873 66.4371 359.857 66.2474 358.518 66.2474C357.015 66.2474 355.951 66.6195 355.326 67.3636C354.879 67.9143 354.581 68.6584 354.433 69.596L348.294 69.596C348.427 67.4678 349.023 65.719 350.079 64.3498C351.761 62.2067 354.648 61.1351 358.741 61.1351C361.405 61.1351 363.772 61.6635 365.84 62.7202C367.909 63.7768 368.943 65.7711 368.943 68.703L368.943 79.8652C368.943 80.6391 368.958 81.5767 368.988 82.678C369.033 83.5115 369.159 84.077 369.368 84.3747C369.576 84.6723 369.888 84.9179 370.305 85.1114L370.305 86.049L363.385 86.049C363.191 85.5578 363.057 85.0965 362.983 84.6649C362.908 84.2333 362.849 83.7421 362.804 83.1915C361.926 84.144 360.914 84.9551 359.768 85.6248C358.399 86.4136 356.851 86.808 355.125 86.808C352.922 86.808 351.103 86.1792 349.666 84.9216C348.23 83.664 347.512 81.8818 347.512 79.5749C347.512 76.5835 348.666 74.4181 350.972 73.0786ZM360.795 80.9814C361.941 80.1777 362.536 78.7117 362.581 76.5835L362.581 74.2171C362.179 74.4701 361.774 74.6748 361.364 74.831C360.955 74.9873 360.393 75.1324 359.679 75.2664L358.25 75.5343C356.911 75.7724 355.951 76.0626 355.37 76.4049C354.388 76.9853 353.897 77.8857 353.897 79.1061C353.897 80.1926 354.198 80.9777 354.801 81.4613C355.404 81.945 356.137 82.1869 357 82.1869C358.369 82.1869 359.634 81.785 360.795 80.9814Z" fill="#454545" fill-rule="nonzero" opacity="1" stroke="#f4eeed" stroke-linecap="butt" stroke-linejoin="round" stroke-width="0.95732"/>
</g>
</g>
<g opacity="1">
<clipPath id="ClipPath_11">
<path d="M161.491 43.9857L416.342 43.9857L416.342 43.9857L416.342 100.149L416.342 100.149L161.491 100.149L161.491 100.149L161.491 43.9857L161.491 43.9857Z"/>
</clipPath>
<g clip-path="url(#ClipPath_11)">
<path d="M387.584 67.6092C387.272 67.5943 387.019 67.5868 386.825 67.5868C384.265 67.5868 382.546 68.4203 381.668 70.0872C381.177 71.0248 380.932 72.4684 380.932 74.4181L380.932 86.049L374.524 86.049L374.524 61.7156L380.597 61.7156L380.597 65.9572C381.579 64.3349 382.435 63.2262 383.164 62.6309C384.355 61.6337 385.902 61.1351 387.807 61.1351C387.926 61.1351 388.027 61.1389 388.109 61.1463C388.191 61.1537 388.373 61.1649 388.656 61.1798L388.656 67.6985C388.254 67.6538 387.897 67.624 387.584 67.6092Z" fill="#454545" fill-rule="nonzero" opacity="1" stroke="#f4eeed" stroke-linecap="butt" stroke-linejoin="round" stroke-width="0.95732"/>
</g>
</g>
<g opacity="1">
<clipPath id="ClipPath_12">
<path d="M161.491 43.9857L416.342 43.9857L416.342 43.9857L416.342 100.149L416.342 100.149L161.491 100.149L161.491 100.149L161.491 43.9857L161.491 43.9857Z"/>
</clipPath>
<g clip-path="url(#ClipPath_12)">
<path d="M398.434 88.5939C398.746 87.7903 398.873 87.2991 398.813 87.1205L389.884 61.7156L396.96 61.7156L402.273 79.6642L407.296 61.7156L414.061 61.7156L405.711 85.6471C404.104 90.2608 402.832 93.122 401.894 94.2308C400.956 95.3396 399.081 95.894 396.268 95.894C395.703 95.894 395.249 95.8902 394.906 95.8828C394.564 95.8754 394.051 95.8493 393.366 95.8047L393.366 90.7147L394.17 90.7594C394.795 90.7891 395.39 90.7668 395.956 90.6924C396.521 90.618 396.998 90.4468 397.384 90.179C397.757 89.9259 398.106 89.3976 398.434 88.5939Z" fill="#454545" fill-rule="nonzero" opacity="1" stroke="#f4eeed" stroke-linecap="butt" stroke-linejoin="round" stroke-width="0.95732"/>
</g>
</g>
</g>
</g>
</svg>
